<?xml version="1.0" standalone="no"?>
<!DOCTYPE svg PUBLIC "-//W3C//DTD SVG 20010904//EN"
 "http://www.w3.org/TR/2001/REC-SVG-20010904/DTD/svg10.dtd">
<svg version="1.0" xmlns="http://www.w3.org/2000/svg"
 width="1920.000000pt" height="1920.000000pt" viewBox="0 0 1920.000000 1920.000000"
 preserveAspectRatio="xMidYMid meet">
<metadata>
Created by potrace 1.14, written by Peter Selinger 2001-2017
</metadata>
<g transform="translate(0.000000,1920.000000) scale(0.100000,-0.100000)"
fill="#000000" stroke="none">
<path d="M6685 15851 c-133 -32 -209 -111 -239 -248 -12 -54 -16 -126 -16
-287 l0 -216 -431 0 c-358 0 -442 -3 -502 -16 -139 -31 -216 -106 -249 -243
-10 -42 -18 -91 -18 -108 l0 -33 -231 0 c-174 0 -247 -4 -302 -16 -139 -31
-216 -106 -249 -243 -16 -67 -18 -126 -18 -508 l0 -433 -32 0 c-63 0 -183 -36
-230 -68 -25 -17 -59 -53 -76 -79 -50 -80 -62 -161 -62 -422 l0 -231 -32 0
c-63 0 -183 -36 -230 -68 -25 -17 -59 -53 -76 -79 -30 -47 -62 -163 -62 -222
l0 -31 -232 0 c-190 0 -247 -3 -309 -18 -137 -33 -212 -110 -243 -249 -14 -62
-16 -161 -16 -702 l0 -631 -32 0 c-63 0 -183 -36 -230 -68 -25 -17 -59 -53
-76 -79 -29 -47 -62 -163 -62 -220 0 -28 -2 -29 -88 -46 -154 -32 -229 -102
-264 -246 -16 -67 -18 -124 -18 -461 0 -337 2 -394 18 -461 35 -144 110 -214
265 -246 l87 -18 0 -628 c0 -539 2 -638 16 -700 31 -139 106 -216 243 -249 62
-15 119 -18 309 -18 l232 0 0 -31 c0 -59 32 -175 62 -222 17 -26 51 -62 76
-79 47 -32 167 -68 230 -68 29 0 32 -3 32 -31 0 -59 32 -175 62 -222 41 -65
105 -107 197 -129 62 -15 119 -18 309 -18 l232 0 0 -432 c0 -383 2 -442 18
-509 33 -137 110 -212 249 -243 55 -12 128 -16 302 -16 l231 0 0 -232 c0 -190
3 -247 18 -309 33 -137 110 -212 249 -243 55 -12 128 -16 302 -16 l231 0 0
-280 0 -280 -31 0 c-59 0 -175 -32 -222 -62 -65 -41 -107 -105 -129 -197 -17
-71 -18 -160 -18 -1459 0 -1232 2 -1391 16 -1455 31 -139 106 -216 243 -249
67 -16 124 -18 461 -18 337 0 394 2 461 18 137 33 212 110 243 249 12 55 16
129 16 314 l0 241 23 -6 c12 -3 48 -9 80 -13 l57 -6 0 -628 0 -629 160 0 160
0 0 790 0 790 -200 0 -200 0 0 400 0 400 -200 0 -200 0 0 -800 0 -800 -400 0
-400 0 0 1400 0 1400 200 0 200 0 0 600 0 600 -400 0 -400 0 0 400 0 400 -400
0 -400 0 0 600 0 600 -400 0 -400 0 0 200 0 200 -200 0 -200 0 0 200 0 200
-400 0 -400 0 0 400 0 400 400 0 400 0 0 400 0 400 400 0 400 0 0 200 0 200
400 0 400 0 0 200 0 200 200 0 200 0 0 -200 0 -200 200 0 200 0 0 200 0 200
200 0 200 0 0 600 0 600 200 0 200 0 0 400 0 400 400 0 400 0 0 -200 0 -200
200 0 200 0 0 200 0 200 600 0 600 0 0 200 0 200 200 0 200 0 0 -200 0 -200
200 0 200 0 0 -200 0 -200 200 0 200 0 0 400 0 400 -200 0 -200 0 0 200 0 200
800 0 800 0 0 -200 0 -200 200 0 200 0 0 -200 0 -200 -200 0 -200 0 0 -200 0
-200 -400 0 -400 0 0 -200 0 -200 -200 0 -200 0 0 -800 0 -800 200 0 200 0 0
-200 0 -200 400 0 400 0 0 1200 0 1200 400 0 400 0 0 -200 0 -200 -200 0 -200
0 0 -800 0 -800 200 0 200 0 0 -200 0 -200 -200 0 -200 0 0 -400 0 -400 -200
0 -200 0 0 -200 0 -200 400 0 400 0 0 600 0 600 400 0 400 0 0 1200 0 1200
-400 0 -400 0 0 600 0 600 400 0 400 0 0 -200 0 -200 600 0 600 0 0 -600 0
-600 200 0 200 0 0 400 0 400 400 0 400 0 0 -1000 0 -1000 -200 0 -200 0 0
-1600 0 -1600 -200 0 -200 0 0 -400 0 -400 -200 0 -200 0 0 -200 0 -200 -200
0 -200 0 0 -200 0 -200 -200 0 -200 0 0 -200 0 -200 -400 0 -400 0 0 -400 0
-400 200 0 200 0 0 -400 0 -400 200 0 200 0 0 -1200 0 -1200 -400 0 -400 0 0
600 0 600 -200 0 -200 0 0 -400 0 -400 -200 0 -200 0 0 -590 0 -590 160 0 160
0 0 429 0 428 58 6 c31 4 67 10 80 13 20 6 22 3 22 -35 0 -70 30 -183 62 -234
41 -65 105 -107 197 -129 67 -16 124 -18 461 -18 337 0 394 2 461 18 137 33
212 110 243 249 14 64 16 206 16 1255 0 1106 -1 1188 -18 1259 -22 92 -64 156
-129 197 -47 30 -163 62 -222 62 l-31 0 0 233 c0 189 -3 246 -18 308 -22 92
-64 156 -129 197 -47 30 -163 62 -222 62 l-31 0 0 80 0 80 231 0 c261 0 342
12 422 62 26 17 62 51 79 76 32 47 68 167 68 230 0 29 3 32 31 32 59 0 175 32
222 62 26 17 62 51 79 76 32 47 68 167 68 230 0 29 3 32 31 32 59 0 175 32
222 62 26 17 62 51 79 76 32 47 68 167 68 230 0 29 3 32 33 32 62 0 182 36
229 68 25 17 59 53 76 79 50 80 62 161 62 422 l0 231 33 0 c17 0 66 8 108 18
137 33 212 110 243 249 14 64 16 227 16 1502 l0 1431 31 0 c59 0 175 32 222
62 65 41 107 105 129 197 16 70 18 140 18 909 l0 832 46 0 c72 0 185 30 237
62 65 41 107 105 129 197 17 71 18 153 18 1261 0 1108 -1 1190 -18 1261 -33
137 -110 212 -249 243 -55 12 -129 16 -317 16 l-246 0 0 33 c0 62 -36 182 -68
229 -17 25 -53 59 -79 76 -80 50 -161 62 -422 62 l-231 0 0 33 c0 17 -8 66
-18 108 -33 137 -110 212 -249 243 -62 14 -161 16 -700 16 l-628 0 -18 88
c-32 154 -102 229 -246 264 -71 17 -146 18 -1061 18 -915 0 -990 -1 -1061 -18
-144 -35 -214 -110 -246 -264 l-18 -88 -475 0 -475 0 -18 88 c-46 222 -154
282 -507 282 -353 0 -461 -60 -507 -282 l-18 -88 -475 0 -475 0 -18 88 c-32
154 -102 229 -246 264 -106 25 -423 25 -526 -1z m4465 -4871 l0 -200 -200 0
-200 0 0 200 0 200 200 0 200 0 0 -200z m1600 0 l0 -200 -200 0 -200 0 0 200
0 200 200 0 200 0 0 -200z"/>
<path d="M8750 7180 l0 -400 200 0 200 0 0 -200 0 -200 200 0 200 0 0 -200 0
-200 1200 0 1200 0 0 200 0 200 -1200 0 -1200 0 0 400 0 400 -200 0 -200 0 0
200 0 200 -200 0 -200 0 0 -400z"/>
</g>
</svg>
